<svg width="50" height="50" viewBox="0 0 50 50" fill="none" xmlns="http://www.w3.org/2000/svg">
<path d="M46.1 28.475C47.6 26.275 46.8 23.575 46.1 22.275C44.6 19.175 40.2 19.275 37.4 19.375C36.8 19.375 36.3 19.375 35.9 19.375C35.7 19.375 35.6 19.375 35.4 19.375C35.5 19.175 35.6 18.975 35.8 18.775C36.8 17.075 38.4 14.275 39 12.175C39.5 10.475 39.1 8.375 38 6.675C37.1 5.275 35.9 4.275 34.6 4.075C33.7 3.875 32.8 4.075 32.1 4.675C30.6 5.775 30.4 8.075 30.4 8.475C30 11.575 27 14.475 25.5 15.875C25.3 16.075 25.1 16.275 25 16.375C24.1 17.275 23.5 18.575 23 19.875C22.7 20.675 22.3 21.475 22 22.075C21.4 23.075 20.5 24.075 20.1 24.475H19.3C19.2 22.975 18 21.875 16.5 21.875H6.8C5.2 21.875 4 23.175 4 24.675V43.075C4 44.675 5.3 45.875 6.8 45.875H16.3C17.4 45.875 18.3 45.275 18.8 44.375C19.7 45.075 20.6 45.675 20.8 45.675C21 45.775 21.3 45.875 21.5 45.875H40.5C40.6 45.875 40.7 45.875 40.7 45.875C41.9 45.675 42.9 45.075 43.6 44.075C44.5 42.775 44.5 41.075 44.4 40.175C46.1 38.075 45.6 35.775 45.2 34.675C46.2 33.475 46.7 32.175 46.7 30.875C46.7 29.875 46.4 29.075 46.1 28.475ZM41.3 39.975C41.4 40.475 41.5 41.675 41.1 42.375C40.9 42.575 40.7 42.775 40.5 42.775H22C21.3 42.375 20.5 41.775 20.1 41.275C19.9 41.075 19.6 40.875 19.3 40.775H19.2V27.575H20.6C21 27.575 21.4 27.375 21.7 27.175C21.9 26.975 23.4 25.475 24.5 23.675C25 22.875 25.4 21.875 25.8 20.975C26.2 19.975 26.6 18.975 27.1 18.475C27.2 18.375 27.4 18.175 27.6 17.975C29.3 16.375 32.9 12.975 33.4 8.775V8.675C33.4 8.075 33.7 7.175 33.9 7.075C34.3 7.175 34.8 7.575 35.2 8.275C35.8 9.275 36 10.475 35.8 11.275C35.3 12.975 33.8 15.675 32.9 17.175C32.7 17.475 32.5 17.775 32.4 17.975C31.8 19.075 31.7 20.075 32.2 20.875C32.9 22.175 34.4 22.375 35.5 22.375C36 22.375 36.6 22.375 37.3 22.375C39.3 22.275 42.6 22.175 43.2 23.575C43.2 23.675 43.3 23.675 43.3 23.775C43.4 23.875 44.5 25.775 43.1 27.075C42.8 27.375 42.6 27.775 42.6 28.175C42.6 28.575 42.7 28.975 43 29.275C43.4 29.675 44.4 31.075 42.3 33.175C41.8 33.675 41.7 34.475 42.1 35.075C42.2 35.275 43.2 36.975 41.7 38.375C41.3 38.875 41.1 39.475 41.3 39.975ZM16.1 24.875V42.775H7.1V24.875H16.1Z" fill="#FFC212"/>
</svg>
